<?xml version="1.0" encoding="UTF-8" standalone="no"?>
<svg
   xmlns:dc="http://purl.org/dc/elements/1.1/"
   xmlns:cc="http://creativecommons.org/ns#"
   xmlns:rdf="http://www.w3.org/1999/02/22-rdf-syntax-ns#"
   xmlns:svg="http://www.w3.org/2000/svg"
   xmlns="http://www.w3.org/2000/svg"
   xmlns:xlink="http://www.w3.org/1999/xlink"
   xmlns:sodipodi="http://sodipodi.sourceforge.net/DTD/sodipodi-0.dtd"
   xmlns:inkscape="http://www.inkscape.org/namespaces/inkscape"
   id="svg13"
   version="1.1"
   width="401pt"
   viewBox="0 -1 401.52289 401"
   height="401pt"
   sodipodi:docname="sidenote_broken.svg"
   inkscape:version="0.92.4 (5da689c313, 2019-01-14)">
  <sodipodi:namedview
     pagecolor="#ffffff"
     bordercolor="#666666"
     borderopacity="1"
     objecttolerance="10"
     gridtolerance="10"
     guidetolerance="10"
     inkscape:pageopacity="0"
     inkscape:pageshadow="2"
     inkscape:window-width="1920"
     inkscape:window-height="1017"
     id="namedview17"
     showgrid="false"
     inkscape:zoom="0.44139651"
     inkscape:cx="267.33333"
     inkscape:cy="267.33333"
     inkscape:window-x="-8"
     inkscape:window-y="-8"
     inkscape:window-maximized="1"
     inkscape:current-layer="svg13" />
  <metadata
     id="metadata19">
    <rdf:RDF>
      <cc:Work
         rdf:about="">
        <dc:format>image/svg+xml</dc:format>
        <dc:type
           rdf:resource="http://purl.org/dc/dcmitype/StillImage" />
        <dc:title></dc:title>
      </cc:Work>
    </rdf:RDF>
  </metadata>
  <defs
     id="defs17">
    <linearGradient
       inkscape:collect="always"
       id="linearGradient828">
      <stop
         style="stop-color:#fa0004;stop-opacity:1"
         offset="0"
         id="stop824" />
      <stop
         style="stop-color:#ff3736;stop-opacity:0.56783921"
         offset="1"
         id="stop826" />
    </linearGradient>
    <linearGradient
       id="linearGradient4605">
      <stop
         id="stop4601"
         offset="0"
         style="stop-color:#ff0000;stop-opacity:1" />
      <stop
         id="stop4603"
         offset="1"
         style="stop-color:#ff1b0d;stop-opacity:1" />
    </linearGradient>
    <linearGradient
       gradientUnits="userSpaceOnUse"
       y2="5.5440273"
       x2="200.76143"
       y1="396.85867"
       x1="204.16418"
       id="linearGradient4607"
       xlink:href="#a" />
    <linearGradient
       inkscape:collect="always"
       xlink:href="#linearGradient828"
       id="linearGradient830"
       x1="202.4628"
       y1="391.75461"
       x2="202.4628"
       y2="-1.261445"
       gradientUnits="userSpaceOnUse" />
  </defs>
  <linearGradient
     id="a">
    <stop
       id="stop2"
       stop-color="#00efd1"
       offset="0" />
    <stop
       id="stop4"
       stop-color="#00acea"
       offset="1" />
  </linearGradient>
  <linearGradient
     y2="32"
     y1="460"
     xlink:href="#a"
     x2="245.523"
     x1="245.523"
     gradientUnits="userSpaceOnUse"
     gradientTransform="matrix(1 0 0 -1 -55.228 458.012335)"
     id="b" />
  <linearGradient
     y2="32"
     y1="460"
     xlink:href="#a"
     x2="310.084"
     x1="310.084"
     gradientUnits="userSpaceOnUse"
     gradientTransform="matrix(1 0 0 -1 -55.228 458.012335)"
     id="c" />
  <g
     style="fill-opacity:1;fill:url(#linearGradient830)"
     id="g4547">
    <path
       style="fill-opacity:1.0;fill:url(#linearGradient830)"
       d="m370.589844 250.972656c-5.523438 0-10 4.476563-10 10v88.789063c-.019532 16.5625-13.4375 29.984375-30 30h-280.589844c-16.5625-.015625-29.980469-13.4375-30-30v-260.589844c.019531-16.558594 13.4375-29.980469 30-30h88.789062c5.523438 0 10-4.476563 10-10 0-5.519531-4.476562-10-10-10h-88.789062c-27.601562.03125-49.96875 22.398437-50 50v260.59375c.03125 27.601563 22.398438 49.96875 50 50h280.589844c27.601562-.03125 49.96875-22.398437 50-50v-88.792969c0-5.523437-4.476563-10-10-10zm0 0"
       fill="url(#b)"
       id="path9" />
    <path
       style="fill-opacity:1.0;fill:url(#linearGradient830)"
       d="m376.628906 13.441406c-17.574218-17.574218-46.066406-17.574218-63.640625 0l-178.40625 178.40625c-1.222656 1.222656-2.105469 2.738282-2.566406 4.402344l-23.460937 84.699219c-.964844 3.472656.015624 7.191406 2.5625 9.742187 2.550781 2.546875 6.269531 3.527344 9.742187 2.566406l84.699219-23.464843c1.664062-.460938 3.179687-1.34375 4.402344-2.566407l178.402343-178.410156c17.546875-17.585937 17.546875-46.054687 0-63.640625zm-220.257812 184.90625 146.011718-146.015625 47.089844 47.089844-146.015625 146.015625zm-9.40625 18.875 37.621094 37.625-52.039063 14.417969zm227.257812-142.546875-10.605468 10.605469-47.09375-47.09375 10.609374-10.605469c9.761719-9.761719 25.589844-9.761719 35.351563 0l11.738281 11.734375c9.746094 9.773438 9.746094 25.589844 0 35.359375zm0 0"
       fill="url(#c)"
       id="path11" />
  </g>
</svg>
